<svg xmlns="http://www.w3.org/2000/svg" width="512" height="512" viewBox="0 0 512 512" version="1.1">
	<path d="M 157.039 68.189 C 155.003 70.374, 155 70.655, 155 243.734 L 155 417.091 157.455 419.545 C 158.805 420.895, 161.025 422, 162.390 422 C 164.047 422, 172.861 416.025, 188.945 404 C 202.186 394.100, 213.465 386, 214.010 386 C 214.642 386, 215 397.037, 215 416.500 C 215 445.667, 215.087 447.087, 217 449 C 218.100 450.100, 220.307 451, 221.906 451 C 224.924 451, 227.773 448.977, 339.500 367.477 C 364.800 349.022, 389.401 331.127, 394.169 327.711 C 398.937 324.295, 403.325 320.466, 403.919 319.203 C 405.442 315.966, 405.261 311.818, 403.486 309.283 C 402.653 308.094, 392.095 300.498, 380.024 292.403 C 367.953 284.308, 358.284 277.350, 358.537 276.940 C 358.790 276.530, 365.186 271.581, 372.749 265.943 C 393.675 250.341, 397 247.338, 397 244.033 C 397 242.487, 396.212 240.319, 395.250 239.215 C 394.288 238.112, 346.250 201.741, 288.500 158.392 C 230.750 115.043, 179.499 76.521, 174.608 72.788 C 164.675 65.206, 160.770 64.184, 157.039 68.189 M 197.455 148.455 L 195 150.909 195.032 243.705 C 195.066 343.702, 194.801 338.833, 200.322 340.932 C 203.432 342.115, 205.101 341.566, 210.773 337.500 L 214.957 334.500 214.979 262.905 C 214.999 194.830, 215.090 191.229, 216.829 189.655 C 220.981 185.897, 224.388 187.320, 245.500 201.628 C 293.864 234.406, 320.469 252.243, 321.697 252.714 C 322.425 252.993, 324.591 252.024, 326.510 250.560 C 331.121 247.043, 331.428 241.736, 327.250 237.752 C 325.738 236.310, 297.765 215.076, 265.089 190.565 C 201.351 142.755, 202.463 143.446, 197.455 148.455 M 258.763 263.565 C 257.257 264.382, 255.779 266.052, 255.478 267.275 C 255.177 268.499, 255.058 277.249, 255.215 286.721 L 255.500 303.942 272.250 291.466 C 281.462 284.604, 289 278.816, 289 278.603 C 289 278.162, 268.630 264.859, 265.316 263.136 C 262.578 261.712, 262.123 261.742, 258.763 263.565 M 289.750 328.181 L 255 354.319 255 361.225 C 255 369.262, 255.837 371.276, 259.871 372.947 C 262.201 373.912, 263.305 373.907, 265.143 372.923 C 268.596 371.076, 335.294 321.029, 336.750 319.194 C 338.778 316.637, 338.267 311.590, 335.750 309.317 C 333.206 307.019, 325.806 301.989, 325.018 302.021 C 324.733 302.033, 308.863 313.805, 289.750 328.181" stroke="none" fill="black" fill-rule="evenodd"/>
</svg>